<svg xmlns="http://www.w3.org/2000/svg" viewBox="0 0 38.35 11.16"><defs><style>.a{fill:#010101;}.b{fill:#f7fcfe;}</style></defs><title>Laka eyes</title><circle class="a" cx="33.75" cy="4.6" r="4.6"/><path class="b" d="M33.18,1.54a3.2,3.2,0,0,0-2.52,1,3.11,3.11,0,0,0-.31,2.07,2,2,0,0,0,.22.89,2,2,0,0,0,1.61.7,1.46,1.46,0,0,0,.69,0,1.63,1.63,0,0,0,.65-.6,3.72,3.72,0,0,0,1-2.6,1.94,1.94,0,0,0-2.24-1.49"/><path class="b" d="M34.58,6.89c0-.34-.6-.34-.7,0s.19.65.5.79a.7.7,0,0,0,.4.09c.45,0,.56-.76.22-1.06a1.14,1.14,0,0,0-1.29,0"/><circle class="a" cx="4.6" cy="6.56" r="4.6"/><path class="b" d="M4,3.51a3.17,3.17,0,0,0-2.51.94,3.11,3.11,0,0,0-.32,2.07,2.05,2.05,0,0,0,.22.89A2.06,2.06,0,0,0,3,8.12a1.6,1.6,0,0,0,.69,0,1.5,1.5,0,0,0,.65-.6,3.67,3.67,0,0,0,1-2.59A1.93,1.93,0,0,0,3.1,3.4"/><path class="b" d="M5.42,8.85c0-.34-.6-.34-.69,0s.18.65.49.8a.78.78,0,0,0,.4.09c.46-.06.57-.77.22-1.07a1.13,1.13,0,0,0-1.28,0"/></svg>